<?xml version="1.0" encoding="utf-8"?>
<!-- Generator: Adobe Illustrator 16.0.0, SVG Export Plug-In . SVG Version: 6.00 Build 0)  -->
<!DOCTYPE svg PUBLIC "-//W3C//DTD SVG 1.1//EN" "http://www.w3.org/Graphics/SVG/1.1/DTD/svg11.dtd">
<svg version="1.1" id="图层_1" xmlns="http://www.w3.org/2000/svg" xmlns:xlink="http://www.w3.org/1999/xlink" x="0px" y="0px"
	 width="85.04px" height="85.04px" viewBox="0 0 85.04 85.04" enable-background="new 0 0 85.04 85.04" xml:space="preserve">
<g>
	<path d="M59.234,16.869c0,9.217-7.484,16.707-16.714,16.707c-9.23,0-16.702-7.49-16.702-16.707c0-9.23,7.472-16.708,16.702-16.708
		C51.75,0.161,59.234,7.639,59.234,16.869z"/>
	<g>
		<path d="M74.529,58.22c-0.193-7.349-4.072-13.924-10.15-18.604c-3.746,5.253-10.154,9.044-17.746,10.075l4.383,3.597l-6.363,5.208
			l6.363,15.044l-8.495,6.975l-8.503-6.975l6.362-15.044l-6.362-5.208l4.391-3.597c-7.581-1.031-14.001-4.822-17.739-10.075
			c-6.098,4.68-9.973,11.255-10.165,18.604h-0.071v26.82h64.175V58.22H74.529z"/>
	</g>
</g>
</svg>
