<?xml version="1.0" encoding="utf-8"?>
<!-- Generator: Adobe Illustrator 16.0.0, SVG Export Plug-In . SVG Version: 6.00 Build 0)  -->
<!DOCTYPE svg PUBLIC "-//W3C//DTD SVG 1.1//EN" "http://www.w3.org/Graphics/SVG/1.1/DTD/svg11.dtd">
<svg version="1.1" id="图层_1" xmlns="http://www.w3.org/2000/svg" xmlns:xlink="http://www.w3.org/1999/xlink" x="0px" y="0px"
	 width="85.04px" height="85.04px" viewBox="0 0 85.04 85.04" enable-background="new 0 0 85.04 85.04" xml:space="preserve">
<g>
	<path d="M71.05,48.748c0.02-15.751,2.41-48.732-28.424-48.732c-31.082,0-28.449,32.981-28.43,48.732H6.942v36.188h71.375V48.748
		H71.05z M42.626,74.036c-4.66,0-8.427-3.774-8.427-8.422c0-4.664,3.767-8.433,8.427-8.433c4.654,0,8.421,3.769,8.421,8.433
		C51.047,70.262,47.28,74.036,42.626,74.036z M62.539,45.861c0,0.993-0.152,1.938-0.285,2.887H22.993
		c-0.134-0.949-0.287-1.894-0.287-2.887c0-11.002-1.944-34.289,19.907-34.289C64.299,11.573,62.539,34.859,62.539,45.861z"/>
</g>
</svg>
