<?xml version="1.0" encoding="utf-8"?>
<!-- Generator: Adobe Illustrator 16.0.0, SVG Export Plug-In . SVG Version: 6.00 Build 0)  -->
<!DOCTYPE svg PUBLIC "-//W3C//DTD SVG 1.1//EN" "http://www.w3.org/Graphics/SVG/1.1/DTD/svg11.dtd">
<svg version="1.1" id="图层_1" xmlns="http://www.w3.org/2000/svg" xmlns:xlink="http://www.w3.org/1999/xlink" x="0px" y="0px"
	 width="255.12px" height="255.12px" viewBox="0 0 255.12 255.12" enable-background="new 0 0 255.12 255.12" xml:space="preserve">
<path d="M153.191,204.299H134.94v-68.483c0-1.445-0.542-2.952-1.626-4.095c-2.288-2.108-5.902-2.108-8.01,0L99.224,157.92
	c-2.168,2.108-2.35,5.722,0,7.892c2.168,2.228,5.722,2.228,8.01,0l16.323-16.564v55.052h-18.311c-3.132,0-5.601,2.408-5.601,5.542
	c0,3.131,2.469,5.721,5.601,5.721h47.945c3.192,0,5.661-2.59,5.661-5.721C158.853,206.707,156.384,204.299,153.191,204.299
	L153.191,204.299z M178.97,108.892L178.97,108.892V95.582c0-5.542-2.229-10.661-5.964-14.395c-1.204-1.205-2.649-2.35-4.216-3.253
	l39.091-67.82c0.663-0.903,1.084-2.048,1.084-3.192c0-3.192-2.529-5.783-5.602-5.783h-64.93V1.26c-1.747,0-3.794,0.964-4.758,2.71
	l-5.421,9.517l-5.541-9.396c-0.904-1.867-2.891-2.831-4.818-2.831V1.139h-64.93c-3.072,0-5.662,2.59-5.662,5.783
	c0,1.144,0.482,2.289,1.145,3.192l39.15,67.82c-1.506,0.903-2.952,2.048-4.156,3.253c-3.794,3.734-6.083,8.853-6.083,14.395v13.311
	c-19.273,15.479-30.778,39.15-30.778,63.966c0,44.933,36.621,81.612,81.673,81.612c44.751,0,81.673-36.861,81.673-81.612
	C209.928,148.042,198.363,124.372,178.97,108.892L178.97,108.892z M141.687,12.462L141.687,12.462h51.919l-32.887,57.159
	l-25.958-44.932L141.687,12.462L141.687,12.462z M167.707,95.582L167.707,95.582v5.662c-11.747-6.385-25.177-10.059-39.452-10.059
	c-14.335,0-27.887,3.674-39.632,10.059v-5.662c0-2.53,1.146-4.818,2.711-6.385h0.181c1.445-1.625,3.614-2.71,6.144-2.71h61.195
	c2.349,0,4.638,1.084,6.145,2.71h0.12C166.743,90.763,167.707,93.052,167.707,95.582L167.707,95.582z M62.724,12.462L62.724,12.462
	h51.979l8.432,14.696l0.301,0.181l27.406,47.823h-51.86L62.724,12.462L62.724,12.462z M128.255,235.679L128.255,235.679
	c-34.693,0-62.821-28.188-62.821-62.82c0-34.452,28.248-62.822,62.821-62.822c34.392,0,62.82,28.37,62.82,62.822
	C191.075,207.491,162.768,235.679,128.255,235.679L128.255,235.679z"/>
</svg>
